<svg width="120" height="120" viewBox="0 0 120 120" fill="none" xmlns="http://www.w3.org/2000/svg">
<rect width="120" height="120" rx="60" fill="#EE5C51"/>
<path fill-rule="evenodd" clip-rule="evenodd" d="M83.2189 40.5523C84.2603 39.5109 84.2603 37.8224 83.2189 36.781C82.1776 35.7397 80.4891 35.7397 79.4477 36.781L60 56.2288L40.5523 36.781C39.5109 35.7397 37.8224 35.7397 36.7811 36.781C35.7397 37.8224 35.7397 39.5109 36.7811 40.5523L56.2288 60L36.781 79.4477C35.7397 80.4891 35.7397 82.1776 36.781 83.219C37.8224 84.2604 39.5109 84.2604 40.5523 83.219L60 63.7712L79.4477 83.219C80.4891 84.2604 82.1776 84.2604 83.219 83.219C84.2604 82.1776 84.2604 80.4891 83.219 79.4477L63.7712 60L83.2189 40.5523Z" fill="white"/>
</svg>
