<svg width="40" height="40" viewBox="0 0 40 40" fill="none" xmlns="http://www.w3.org/2000/svg">
<rect width="40" height="40" rx="20" fill="#E6E6E9"/>
<path fill-rule="evenodd" clip-rule="evenodd" d="M16.8044 25.7007C16.4174 26.0947 15.7842 26.1004 15.3902 25.7134L10.2993 20.7134C10.1078 20.5254 10 20.2683 10 20C10 19.7317 10.1078 19.4746 10.2993 19.2866L15.3902 14.2866C15.7842 13.8996 16.4174 13.9053 16.8044 14.2993C17.1913 14.6933 17.1856 15.3265 16.7916 15.7134L13.4453 19L29 19C29.5523 19 30 19.4477 30 20C30 20.5523 29.5523 21 29 21L13.4453 21L16.7916 24.2866C17.1856 24.6735 17.1913 25.3067 16.8044 25.7007Z" fill="#717171"/>
</svg>
