<svg width="140" height="140" viewBox="0 0 140 140" fill="none" xmlns="http://www.w3.org/2000/svg">
<circle cx="70" cy="70" r="66" stroke="#D2D2D7" stroke-opacity="0.6" stroke-width="8"/>
<path d="M124.677 32.807C126.445 31.6042 126.912 29.1883 125.613 27.4893C119.483 19.469 111.679 12.8568 102.729 8.12249C93.7781 3.38821 83.9209 0.659352 73.841 0.10545C71.7057 -0.011886 69.9715 1.7336 69.9723 3.8721C69.9732 6.0106 71.7093 7.73092 73.8437 7.86294C82.6595 8.40825 91.2741 10.8245 99.108 14.9681C106.942 19.1116 113.787 24.8726 119.199 31.8529C120.51 33.5429 122.909 34.0098 124.677 32.807Z" fill="#0071E3"/>
<path d="M58.8188 75.4905C64.4873 75.4905 68.448 71.7661 68.448 66.4065C68.448 61.3921 64.8325 57.7584 59.8181 57.7584C57.2382 57.7584 55.058 58.7577 53.8771 60.52H53.7863L54.5857 52.2172H66.9218V48.7834H51.2972L50.0073 63.8993H53.5683C54.6765 61.9735 56.5478 60.9742 58.8915 60.9742C62.1618 60.9742 64.4691 63.2816 64.4691 66.5155C64.4691 69.7857 62.18 72.0931 58.8552 72.0931C55.9301 72.0931 53.7136 70.3126 53.4229 67.7146H49.5349C49.7711 72.2929 53.5864 75.4905 58.8188 75.4905ZM80.5661 75.4905C87.1248 75.4905 91.0128 70.2945 91.0128 61.5192C91.0128 51.7266 85.7622 48.2747 80.6933 48.2747C75.152 48.2747 71.1187 52.09 71.1187 57.3587C71.1187 62.3913 74.8795 65.9886 79.8212 65.9886C83.2005 65.9886 85.962 64.2808 87.0158 61.7191H87.0885C87.0521 68.187 84.8719 72.1113 80.6024 72.1113C78.0589 72.1113 76.1694 70.9303 75.4972 68.7138H71.4094C72.1543 72.7835 75.8242 75.4905 80.5661 75.4905ZM80.6933 62.682C77.5139 62.682 75.152 60.3928 75.152 57.2134C75.152 54.1612 77.6229 51.7448 80.7478 51.7448C83.8727 51.7448 86.3072 54.1793 86.3072 57.3042C86.3072 60.411 83.909 62.682 80.6933 62.682Z" fill="#1D1D1F"/>
<path d="M42.9666 100.581C43.1168 102.781 44.9723 104.212 47.7555 104.212C50.6094 104.212 52.4648 102.737 52.4648 100.377C52.4648 98.575 51.4134 97.5147 48.7539 96.9315L47.3402 96.6223C45.5996 96.2424 44.9193 95.5532 44.9193 94.5459C44.9193 93.2471 46.1474 92.4696 47.7378 92.4696C49.3989 92.4696 50.5033 93.3266 50.6447 94.7227H52.2351C52.1644 92.5579 50.3266 91.0382 47.782 91.0382C45.1402 91.0382 43.2847 92.5138 43.2847 94.6166C43.2847 96.4279 44.3891 97.5854 46.9426 98.142L48.3563 98.4513C50.1234 98.84 50.8303 99.5469 50.8303 100.616C50.8303 101.871 49.5756 102.781 47.8438 102.781C46.0149 102.781 44.7426 101.95 44.557 100.581H42.9666ZM56.7766 104.159C58.0136 104.159 59.1799 103.47 59.7277 102.418H59.763V104H61.2209V97.6472C61.2209 95.8183 59.8602 94.652 57.7043 94.652C55.5308 94.652 54.1701 95.8713 54.0641 97.4617H55.5485C55.7428 96.5605 56.485 96.0038 57.669 96.0038C58.9413 96.0038 59.6835 96.6753 59.6835 97.7974V98.5661L57.0505 98.7163C54.93 98.84 53.7195 99.8296 53.7195 101.402C53.7195 103.055 54.9476 104.159 56.7766 104.159ZM57.1212 102.851C56.0167 102.851 55.2834 102.277 55.2834 101.402C55.2834 100.536 55.9902 99.9887 57.2272 99.9091L59.6835 99.7589V100.51C59.6835 101.835 58.5702 102.851 57.1212 102.851ZM63.1735 104H64.7109V98.5926C64.7109 97.0376 65.6563 96.0126 67.1054 96.0126C68.5191 96.0126 69.2171 96.8255 69.2171 98.3099V104H70.7545V98.036C70.7545 95.9508 69.5882 94.652 67.5737 94.652C66.1511 94.652 65.1704 95.2881 64.6579 96.2777H64.6226V94.811H63.1735V104ZM73.5642 93.1764C74.1031 93.1764 74.5273 92.7435 74.5273 92.2134C74.5273 91.6744 74.1031 91.2503 73.5642 91.2503C73.034 91.2503 72.6011 91.6744 72.6011 92.2134C72.6011 92.7435 73.034 93.1764 73.5642 93.1764ZM72.7955 104H74.3329V94.811H72.7955V104ZM77.1779 107.437C78.839 107.437 79.5989 106.792 80.3852 104.645L83.999 94.811H82.3821L79.8374 102.463H79.8109L77.2663 94.811H75.6229L79.0157 104.009L78.8037 104.654C78.4502 105.723 77.9731 106.138 77.1161 106.138C76.9217 106.138 76.6831 106.129 76.5153 106.094V107.384C76.6831 107.419 76.9924 107.437 77.1779 107.437ZM91.0409 101.367C90.7847 102.233 89.9276 102.825 88.7613 102.825C87.1091 102.825 86.0753 101.667 86.0753 99.9091V99.8208H92.6667V99.2376C92.6667 96.4544 91.1381 94.652 88.6553 94.652C86.1195 94.652 84.4938 96.587 84.4938 99.4408C84.4938 102.33 86.093 104.159 88.726 104.159C90.7317 104.159 92.2867 102.975 92.5518 101.367H91.0409ZM88.6288 95.9861C90.0778 95.9861 91.0409 97.0818 91.0763 98.6191H86.0842C86.1814 97.0906 87.1886 95.9861 88.6288 95.9861Z" fill="#6E6E73"/>
</svg>
