<svg width="20" height="20" viewBox="0 0 20 20" fill="none" xmlns="http://www.w3.org/2000/svg">
<path fill-rule="evenodd" clip-rule="evenodd" d="M11.5533 1.72177C11.0935 1.72603 10.7242 2.11282 10.7283 2.58571C10.7325 3.05859 11.1085 3.43848 11.5683 3.43422L15.4726 3.39804L9.84835 9.1831C9.52325 9.51749 9.52325 10.0596 9.84835 10.394C10.1734 10.7284 10.7005 10.7284 11.0256 10.394L16.6499 4.60897L16.6148 8.62496C16.6106 9.09784 16.98 9.48464 17.4397 9.4889C17.8994 9.49316 18.2755 9.11327 18.2796 8.64039L18.3331 2.53066C18.3351 2.3009 18.2473 2.07995 18.0893 1.91748C17.9314 1.75501 17.7166 1.66465 17.4932 1.66672L11.5533 1.72177ZM2.49897 2.06438C2.03921 2.06438 1.6665 2.44774 1.6665 2.92064V17.4771C1.6665 17.95 2.03921 18.3334 2.49897 18.3334H17.4834C17.9431 18.3334 18.3158 17.95 18.3158 17.4771V13.1958C18.3158 12.7229 17.9431 12.3395 17.4834 12.3395C17.0236 12.3395 16.6509 12.7229 16.6509 13.1958V16.6208H3.33144V3.77691H7.07754C7.5373 3.77691 7.91001 3.39355 7.91001 2.92064C7.91001 2.44774 7.5373 2.06438 7.07754 2.06438H2.49897Z" fill="#0071E3"/>
</svg>
