<svg width="18" height="18" viewBox="0 0 18 18" fill="none" xmlns="http://www.w3.org/2000/svg">
<path fill-rule="evenodd" clip-rule="evenodd" d="M9.00008 17.3334C4.39771 17.3334 0.666748 13.6024 0.666748 9.00002C0.666748 4.39765 4.39771 0.666687 9.00008 0.666687C13.6025 0.666687 17.3334 4.39765 17.3334 9.00002C17.3334 13.6024 13.6025 17.3334 9.00008 17.3334ZM9.00008 2.33335C5.31818 2.33335 2.33341 5.31812 2.33341 9.00002C2.33341 12.6819 5.31818 15.6667 9.00008 15.6667C12.682 15.6667 15.6667 12.6819 15.6667 9.00002C15.6667 5.31812 12.682 2.33335 9.00008 2.33335ZM9.00008 7.95835C9.57538 7.95835 10.0417 8.42472 10.0417 9.00002V12.3334C10.0417 12.9087 9.57538 13.375 9.00008 13.375C8.42478 13.375 7.95842 12.9087 7.95842 12.3334V9.00002C7.95842 8.42472 8.42478 7.95835 9.00008 7.95835ZM9.00008 4.83335C8.42478 4.83335 7.95842 5.29972 7.95842 5.87502C7.95842 6.45032 8.42478 6.91669 9.00008 6.91669C9.57538 6.91669 10.0417 6.45032 10.0417 5.87502C10.0417 5.29972 9.57538 4.83335 9.00008 4.83335Z" fill="#86868B"/>
</svg>
