<svg width="28" height="24" viewBox="0 0 28 24" fill="none" xmlns="http://www.w3.org/2000/svg">
<path d="M22.0621 5.04484L22.1274 5.22684L22.3201 5.24252C24.2255 5.39754 25.6998 6.91714 25.6998 8.74364V10.3552V10.5323L25.8549 10.6179C26.5647 11.0094 27.0332 11.7351 27.0332 12.5577V15.1005C27.0332 15.9231 26.5647 16.6488 25.8549 17.0403L25.6998 17.1259V17.303V20.1859C25.6998 22.1134 24.0569 23.7 21.9998 23.7L4.66651 23.7C2.60944 23.7 0.966504 22.1134 0.966504 20.1859V8.74364C0.966504 7.27679 1.91521 6.00996 3.27765 5.48547L3.31724 5.47023L3.35105 5.44461C3.42945 5.38521 3.51903 5.33528 3.61896 5.29799L16.3591 0.544523C18.3329 -0.191908 20.5367 0.794598 21.214 2.68177L22.0621 5.04484ZM23.3332 10.315H23.6332V10.015V8.74364C23.6332 7.86251 22.8883 7.17228 21.9998 7.17228L4.66651 7.17228C3.77806 7.17228 3.03317 7.86251 3.03317 8.74364L3.03317 20.1859C3.03317 21.067 3.77806 21.7573 4.66651 21.7573L21.9998 21.7573C22.8883 21.7573 23.6332 21.067 23.6332 20.1859V17.6432V17.3432H23.3332H21.9998C19.9428 17.3432 18.2998 15.7566 18.2998 13.8291C18.2998 11.9016 19.9428 10.315 21.9998 10.315H23.3332ZM19.5209 5.22955H19.9473L19.8033 4.82822L19.2557 3.30234C18.95 2.45049 17.9746 2.03181 17.1211 2.35028L10.9615 4.64848L11.0664 5.22955L19.5209 5.22955ZM24.9665 12.5577V12.2577H24.6665H21.9998C21.1114 12.2577 20.3665 12.948 20.3665 13.8291C20.3665 14.7102 21.1114 15.4005 21.9998 15.4005H24.6665H24.9665V15.1005V12.5577Z" fill="#1D1D1F" stroke="white" stroke-width="0.6"/>
</svg>
