<svg width="28" height="28" viewBox="0 0 28 28" fill="none" xmlns="http://www.w3.org/2000/svg">
<path d="M14.4217 25.68C14.3724 25.6473 14.3147 25.6298 14.2556 25.6298H10.4911H4.87703C2.71731 25.6298 0.966504 23.879 0.966504 21.7193V4.8772C0.966504 2.71747 2.71731 0.966672 4.87703 0.966672H16.1051C18.2648 0.966672 20.0156 2.71747 20.0156 4.8772V10.6077C20.0156 10.7542 20.1215 10.8793 20.266 10.9035C24.1066 11.5479 27.0332 14.8886 27.0332 18.9123C27.0332 23.3974 23.3973 27.0333 18.9121 27.0333C17.2513 27.0333 15.7077 26.5351 14.4217 25.68ZM11.6177 23.4228C11.7249 23.4228 11.8239 23.3656 11.8775 23.2727C11.9311 23.1798 11.931 23.0654 11.8773 22.9726C11.1865 21.7784 10.7911 20.392 10.7911 18.9123C10.7911 14.8886 13.7176 11.5479 17.5582 10.9035C17.7028 10.8793 17.8086 10.7542 17.8086 10.6077V4.8772C17.8086 3.93638 17.0459 3.17369 16.1051 3.17369H9.08756C8.92187 3.17369 8.78756 3.308 8.78756 3.47369V4.8772C8.78756 5.48665 8.2935 5.98071 7.68405 5.98071C7.0746 5.98071 6.58054 5.48665 6.58054 4.8772V3.47369C6.58054 3.308 6.44622 3.17369 6.28054 3.17369H4.87703C3.93621 3.17369 3.17352 3.93638 3.17352 4.8772V21.7193C3.17352 22.6601 3.93621 23.4228 4.87703 23.4228H10.4911H11.6177ZM18.0352 18.6625C18.1 18.7403 18.1996 18.7801 18.3002 18.7685C18.4008 18.7568 18.4887 18.6952 18.5339 18.6046L19.6795 16.3135C19.952 15.7684 20.6149 15.5475 21.16 15.82C21.7051 16.0926 21.9261 16.7554 21.6535 17.3005L19.5483 21.5111C19.3817 21.8441 19.0584 22.0708 18.6885 22.1137C18.3185 22.1566 17.9519 22.0101 17.7135 21.724L16.31 20.0398C15.9198 19.5716 15.9831 18.8758 16.4513 18.4856C16.9195 18.0954 17.6153 18.1587 18.0055 18.6269L18.0352 18.6625ZM18.9121 12.9983C15.6459 12.9983 12.9981 15.6461 12.9981 18.9123C12.9981 22.1785 15.6459 24.8263 18.9121 24.8263C22.1784 24.8263 24.8262 22.1785 24.8262 18.9123C24.8262 15.6461 22.1784 12.9983 18.9121 12.9983ZM7.68405 11.5947C7.0746 11.5947 6.58054 11.1007 6.58054 10.4912V9.08772C6.58054 8.47827 7.0746 7.98422 7.68405 7.98422C8.2935 7.98422 8.78756 8.47827 8.78756 9.08772V10.4912C8.78756 11.1007 8.2935 11.5947 7.68405 11.5947ZM7.68405 17.2088C7.0746 17.2088 6.58054 16.7147 6.58054 16.1053V14.7018C6.58054 14.0923 7.0746 13.5983 7.68405 13.5983C8.2935 13.5983 8.78756 14.0923 8.78756 14.7018V16.1053C8.78756 16.7147 8.2935 17.2088 7.68405 17.2088Z" fill="#1D1D1F" stroke="white" stroke-width="0.6" stroke-linecap="round" stroke-linejoin="round"/>
</svg>
