<svg width="28" height="28" viewBox="0 0 28 28" fill="none" xmlns="http://www.w3.org/2000/svg">
<path d="M23.3332 6.30001H24.0574L23.5453 5.78787L21.2692 3.51173C20.9629 3.20542 20.5474 3.03334 20.1142 3.03334H7.88546C7.45227 3.03334 7.03682 3.20542 6.73051 3.51173L4.45437 5.78787L3.94224 6.30001H4.6665H23.3332ZM7.88546 0.966672H20.1142C21.0955 0.966672 22.0366 1.35649 22.7305 2.05038L25.9495 5.26933C26.6434 5.96321 27.0332 6.90432 27.0332 7.88562V10V23.3333C27.0332 25.3768 25.3766 27.0333 23.3332 27.0333H4.6665C2.62305 27.0333 0.966504 25.3768 0.966504 23.3333V10V7.88562C0.966504 6.90432 1.35632 5.96321 2.05021 5.26933L5.26916 2.05038C5.96305 1.35649 6.90415 0.966672 7.88546 0.966672ZM3.03317 10V23.3333C3.03317 24.2354 3.76444 24.9667 4.6665 24.9667H23.3332C24.2352 24.9667 24.9665 24.2354 24.9665 23.3333V10C24.9665 9.09794 24.2352 8.36667 23.3332 8.36667H4.6665C3.76444 8.36667 3.03317 9.09794 3.03317 10ZM8.9665 12.6667C8.9665 12.096 9.42914 11.6333 9.99984 11.6333H17.9998C18.5705 11.6333 19.0332 12.096 19.0332 12.6667C19.0332 13.2374 18.5705 13.7 17.9998 13.7H9.99984C9.42914 13.7 8.9665 13.2374 8.9665 12.6667Z" fill="#1D1D1F" stroke="white" stroke-width="0.6"/>
</svg>
